<?xml version="1.0" encoding="UTF-8"?>
<!DOCTYPE svg PUBLIC "-//W3C//DTD SVG 1.1//EN" "http://www.w3.org/Graphics/SVG/1.1/DTD/svg11.dtd">
<svg xmlns="http://www.w3.org/2000/svg" version="1.1" width="256px" height="256px" style="shape-rendering:geometricPrecision; text-rendering:geometricPrecision; image-rendering:optimizeQuality; fill-rule:evenodd; clip-rule:evenodd" xmlns:xlink="http://www.w3.org/1999/xlink">
<g><path style="opacity:1" fill="#994880" d="M 116.5,-0.5 C 120.833,-0.5 125.167,-0.5 129.5,-0.5C 128.318,1.90438 128.318,4.40438 129.5,7C 134.075,19.561 138.742,32.061 143.5,44.5C 145.583,56.0996 149.249,67.433 154.5,78.5C 153.332,79.9056 153.665,81.0723 155.5,82C 155.167,82.3333 154.833,82.6667 154.5,83C 155.833,86 157.167,89 158.5,92C 158.167,92.3333 157.833,92.6667 157.5,93C 164.081,107.977 169.248,123.811 173,140.5C 173.383,141.056 173.883,141.389 174.5,141.5C 172.501,147.507 170.834,153.507 169.5,159.5C 169.5,158.833 169.5,158.167 169.5,157.5C 161.941,128.93 153.608,100.597 144.5,72.5C 141.103,71.8018 137.603,71.1352 134,70.5C 126.782,47.2752 119.615,24.7752 112.5,3C 113.347,1.2294 114.68,0.0627329 116.5,-0.5 Z"/></g>
<g><path style="opacity:1" fill="#964985" d="M 129.5,-0.5 C 134.5,-0.5 139.5,-0.5 144.5,-0.5C 144.5,-0.166667 144.5,0.166667 144.5,0.5C 141.482,0.335374 138.482,0.50204 135.5,1C 137.008,2.50666 138.341,4.17333 139.5,6C 139.167,6.33333 138.833,6.66667 138.5,7C 140.653,8.89075 141.32,11.0574 140.5,13.5C 141.959,15.583 143.292,17.7497 144.5,20C 144.5,22 144.5,24 144.5,26C 146.632,26.918 147.299,28.2513 146.5,30C 148.212,34.3034 149.878,38.6367 151.5,43C 151.355,43.772 151.022,44.4387 150.5,45C 151.667,45.5 152.5,46.3333 153,47.5C 153.675,52.0739 155.175,56.2406 157.5,60C 157.5,62.3333 157.5,64.6667 157.5,67C 160.667,73.5173 163.167,80.3506 165,87.5C 165.792,89.5873 166.959,91.4207 168.5,93C 167.833,93.3333 167.167,93.6667 166.5,94C 168.288,98.3335 170.288,102.667 172.5,107C 171.46,110.092 172.46,113.092 175.5,116C 175.043,116.414 174.709,116.914 174.5,117.5C 176.059,120.865 177.392,124.198 178.5,127.5C 177.167,132.167 175.833,136.833 174.5,141.5C 173.883,141.389 173.383,141.056 173,140.5C 169.248,123.811 164.081,107.977 157.5,93C 157.833,92.6667 158.167,92.3333 158.5,92C 157.167,89 155.833,86 154.5,83C 154.833,82.6667 155.167,82.3333 155.5,82C 153.665,81.0723 153.332,79.9056 154.5,78.5C 149.249,67.433 145.583,56.0996 143.5,44.5C 138.742,32.061 134.075,19.561 129.5,7C 128.318,4.40438 128.318,1.90438 129.5,-0.5 Z"/></g>
<g><path style="opacity:1" fill="#944988" d="M 144.5,0.5 C 146.735,0.205283 148.735,0.538616 150.5,1.5C 148.473,1.33788 146.473,1.50454 144.5,2C 157.183,39.786 169.35,76.9527 181,113.5C 181.625,111.293 182.459,109.96 183.5,109.5C 182.233,115.63 180.567,121.63 178.5,127.5C 177.392,124.198 176.059,120.865 174.5,117.5C 174.709,116.914 175.043,116.414 175.5,116C 172.46,113.092 171.46,110.092 172.5,107C 170.288,102.667 168.288,98.3335 166.5,94C 167.167,93.6667 167.833,93.3333 168.5,93C 166.959,91.4207 165.792,89.5873 165,87.5C 163.167,80.3506 160.667,73.5173 157.5,67C 157.5,64.6667 157.5,62.3333 157.5,60C 155.175,56.2406 153.675,52.0739 153,47.5C 152.5,46.3333 151.667,45.5 150.5,45C 151.022,44.4387 151.355,43.772 151.5,43C 149.878,38.6367 148.212,34.3034 146.5,30C 147.299,28.2513 146.632,26.918 144.5,26C 144.5,24 144.5,22 144.5,20C 143.292,17.7497 141.959,15.583 140.5,13.5C 141.32,11.0574 140.653,8.89075 138.5,7C 138.833,6.66667 139.167,6.33333 139.5,6C 138.341,4.17333 137.008,2.50666 135.5,1C 138.482,0.50204 141.482,0.335374 144.5,0.5 Z"/></g>
<g><path style="opacity:1" fill="#9e497a" d="M 111.5,-0.5 C 113.167,-0.5 114.833,-0.5 116.5,-0.5C 114.68,0.0627329 113.347,1.2294 112.5,3C 119.615,24.7752 126.782,47.2752 134,70.5C 137.603,71.1352 141.103,71.8018 144.5,72.5C 135.833,72.5 127.167,72.5 118.5,72.5C 119.278,71.8444 119.944,71.0111 120.5,70C 113.775,49.6944 106.775,29.1944 99.5,8.5C 99.9202,6.67401 99.9202,4.67401 99.5,2.5C 103.461,1.31579 107.461,0.315794 111.5,-0.5 Z"/></g>
<g><path style="opacity:1" fill="#924b8e" d="M 150.5,1.5 C 189.836,9.00305 219.669,30.0031 240,64.5C 243.673,70.8412 246.506,77.5079 248.5,84.5C 248.12,86.698 248.787,88.3646 250.5,89.5C 252.435,96.1978 254.102,102.864 255.5,109.5C 255.5,121.5 255.5,133.5 255.5,145.5C 250.855,173.791 238.521,198.125 218.5,218.5C 215.233,218.576 213.899,217.243 214.5,214.5C 213.108,211.994 211.775,209.494 210.5,207C 206.464,190.566 201.464,174.566 195.5,159C 195.833,158.667 196.167,158.333 196.5,158C 194.883,156.908 193.883,155.408 193.5,153.5C 195.102,147.029 197.102,140.696 199.5,134.5C 204.833,118.833 210.167,103.167 215.5,87.5C 215.5,87.1667 215.5,86.8333 215.5,86.5C 216.738,84.7857 217.405,82.7857 217.5,80.5C 218.67,78.3498 219.67,76.0164 220.5,73.5C 212.187,72.3349 203.853,72.1683 195.5,73C 193.13,78.2762 191.464,83.7762 190.5,89.5C 188.162,96.1825 185.828,102.849 183.5,109.5C 182.459,109.96 181.625,111.293 181,113.5C 169.35,76.9527 157.183,39.786 144.5,2C 146.473,1.50454 148.473,1.33788 150.5,1.5 Z"/></g>
<g><path style="opacity:1" fill="#a14874" d="M 99.5,2.5 C 99.9202,4.67401 99.9202,6.67401 99.5,8.5C 106.775,29.1944 113.775,49.6944 120.5,70C 119.944,71.0111 119.278,71.8444 118.5,72.5C 119.462,76.3948 120.796,80.0615 122.5,83.5C 122.263,84.791 122.596,85.791 123.5,86.5C 123.5,86.8333 123.5,87.1667 123.5,87.5C 128.502,102.172 133.502,116.838 138.5,131.5C 144.364,148.426 150.031,165.426 155.5,182.5C 159.297,189.53 161.964,196.697 163.5,204C 167.781,217.002 171.947,230.168 176,243.5C 176.708,244.381 177.542,245.047 178.5,245.5C 174.478,247.734 170.144,249.401 165.5,250.5C 148.682,200.533 132.182,149.866 116,98.5C 115.085,97.6721 114.419,96.6721 114,95.5C 113.601,95.7284 113.435,96.0618 113.5,96.5C 112.655,95.3285 111.989,93.9952 111.5,92.5C 112.497,92.5299 113.164,92.0299 113.5,91C 107.033,73.6406 101.7,56.9739 97.5,41C 92.9484,30.1778 89.2817,19.0111 86.5,7.5C 89.5,6.16667 92.5,4.83333 95.5,3.5C 96.5676,2.56552 97.901,2.23219 99.5,2.5 Z"/></g>
<g><path style="opacity:0.902" fill="#b57e96" d="M 95.5,3.5 C 92.5,4.83333 89.5,6.16667 86.5,7.5C 85.1667,7.5 83.8333,7.5 82.5,7.5C 86.5021,5.39024 90.8354,4.0569 95.5,3.5 Z"/></g>
<g><path style="opacity:1" fill="#a4466e" d="M 82.5,7.5 C 83.8333,7.5 85.1667,7.5 86.5,7.5C 89.2817,19.0111 92.9484,30.1778 97.5,41C 101.7,56.9739 107.033,73.6406 113.5,91C 113.164,92.0299 112.497,92.5299 111.5,92.5C 109.781,88.6099 107.448,85.1099 104.5,82C 99.8484,78.6276 94.8484,76.1276 89.5,74.5C 90.9778,74.762 92.3112,74.4287 93.5,73.5C 86.157,52.7035 79.4904,32.0368 73.5,11.5C 76.0884,9.40821 79.0884,8.07488 82.5,7.5 Z"/></g>
<g><path style="opacity:1" fill="#a84566" d="M 73.5,11.5 C 79.4904,32.0368 86.157,52.7035 93.5,73.5C 92.3112,74.4287 90.9778,74.762 89.5,74.5C 85.8648,73.8857 82.1981,73.5524 78.5,73.5C 77.791,72.596 76.791,72.2627 75.5,72.5C 76.4543,68.52 75.4543,65.02 72.5,62C 72.8333,61.6667 73.1667,61.3333 73.5,61C 68.6521,48.9991 64.3187,36.6657 60.5,24C 61.0317,21.9952 60.0317,20.8286 57.5,20.5C 62.1773,16.4905 67.5106,13.4905 73.5,11.5 Z"/></g>
<g><path style="opacity:1" fill="#ac4461" d="M 57.5,20.5 C 60.0317,20.8286 61.0317,21.9952 60.5,24C 64.3187,36.6657 68.6521,48.9991 73.5,61C 73.1667,61.3333 72.8333,61.6667 72.5,62C 75.4543,65.02 76.4543,68.52 75.5,72.5C 71.8333,72.5 68.1667,72.5 64.5,72.5C 60.263,57.0916 55.0964,42.0916 49,27.5C 48.3292,28.2524 47.4959,28.5858 46.5,28.5C 49.6012,25.0669 53.2679,22.4002 57.5,20.5 Z"/></g>
<g><path style="opacity:1" fill="#af425a" d="M 64.5,72.5 C 60.5,72.5 56.5,72.5 52.5,72.5C 52.5,72.1667 52.5,71.8333 52.5,71.5C 48.1971,59.8903 44.5304,48.3903 41.5,37C 40.7562,35.9614 39.7562,35.4614 38.5,35.5C 39.1667,34.1667 40.1667,33.1667 41.5,32.5C 43.7488,31.9202 45.4154,30.5869 46.5,28.5C 47.4959,28.5858 48.3292,28.2524 49,27.5C 55.0964,42.0916 60.263,57.0916 64.5,72.5 Z"/></g>
<g><path style="opacity:0.863" fill="#be7d88" d="M 46.5,28.5 C 45.4154,30.5869 43.7488,31.9202 41.5,32.5C 42.5846,30.4131 44.2512,29.0798 46.5,28.5 Z"/></g>
<g><path style="opacity:1" fill="#b24255" d="M 38.5,35.5 C 39.7562,35.4614 40.7562,35.9614 41.5,37C 44.5304,48.3903 48.1971,59.8903 52.5,71.5C 48.1667,71.5 43.8333,71.5 39.5,71.5C 37.669,62.337 34.669,53.6704 30.5,45.5C 30.5,44.8333 30.5,44.1667 30.5,43.5C 32.8333,40.5 35.5,37.8333 38.5,35.5 Z"/></g>
<g><path style="opacity:0.686" fill="#cc9aa0" d="M 30.5,43.5 C 30.5,44.1667 30.5,44.8333 30.5,45.5C 29.8333,45.8333 29.1667,46.1667 28.5,46.5C 28.427,44.9731 29.0937,43.9731 30.5,43.5 Z"/></g>
<g><path style="opacity:0.706" fill="#cc9a9e" d="M 26.5,48.5 C 26.573,50.0269 25.9063,51.0269 24.5,51.5C 24.427,49.9731 25.0937,48.9731 26.5,48.5 Z"/></g>
<g><path style="opacity:1" fill="#b6404e" d="M 30.5,45.5 C 34.669,53.6704 37.669,62.337 39.5,71.5C 43.8333,71.5 48.1667,71.5 52.5,71.5C 52.5,71.8333 52.5,72.1667 52.5,72.5C 45.9779,72.1765 39.6446,72.5098 33.5,73.5C 32.6715,80.3213 32.1715,87.3213 32,94.5C 27.9408,81.8423 24.1074,69.5089 20.5,57.5C 21.3403,55.1475 22.6736,53.1475 24.5,51.5C 25.9063,51.0269 26.573,50.0269 26.5,48.5C 26.8333,47.5 27.5,46.8333 28.5,46.5C 29.1667,46.1667 29.8333,45.8333 30.5,45.5 Z"/></g>
<g><path style="opacity:1" fill="#b94048" d="M 20.5,57.5 C 24.1074,69.5089 27.9408,81.8423 32,94.5C 32.1715,87.3213 32.6715,80.3213 33.5,73.5C 33.1682,110.004 33.5016,146.337 34.5,182.5C 42.8333,182.5 51.1667,182.5 59.5,182.5C 61.1207,184.147 62.2874,186.147 63,188.5C 68.9375,207.981 75.4375,227.148 82.5,246C 81.552,246.483 80.552,246.649 79.5,246.5C 34.5276,226.861 7.86091,192.861 -0.5,144.5C -0.5,133.5 -0.5,122.5 -0.5,111.5C 2.17245,91.8158 9.17245,73.8158 20.5,57.5 Z"/></g>
<g><path style="opacity:1" fill="#c5c6c6" d="M 78.5,73.5 C 82.1981,73.5524 85.8648,73.8857 89.5,74.5C 94.8484,76.1276 99.8484,78.6276 104.5,82C 107.448,85.1099 109.781,88.6099 111.5,92.5C 111.989,93.9952 112.655,95.3285 113.5,96.5C 113.5,97.8333 113.5,99.1667 113.5,100.5C 112.732,99.7375 112.232,98.7375 112,97.5C 111.667,98.5 111.333,99.5 111,100.5C 109.624,92.0517 105.124,86.0517 97.5,82.5C 96.7101,81.2058 95.7101,80.0391 94.5,79C 89.8596,77.9081 85.1929,76.9081 80.5,76C 65.8333,75.3333 51.1667,75.3333 36.5,76C 35.9558,76.7172 35.2891,77.2172 34.5,77.5C 34.5,76.1667 34.5,74.8333 34.5,73.5C 49.1667,73.5 63.8333,73.5 78.5,73.5 Z"/></g>
<g><path style="opacity:1" fill="#cbc6cb" d="M 217.5,80.5 C 217.196,79.8501 216.863,79.1835 216.5,78.5C 210.863,77.3368 205.196,77.1701 199.5,78C 195.306,79.1505 193.306,81.9838 193.5,86.5C 193.132,88.1753 192.132,89.1753 190.5,89.5C 191.464,83.7762 193.13,78.2762 195.5,73C 203.853,72.1683 212.187,72.3349 220.5,73.5C 219.67,76.0164 218.67,78.3498 217.5,80.5 Z"/></g>
<g><path style="opacity:0.859" fill="#bb99b9" d="M 248.5,84.5 C 249.537,85.9303 250.204,87.597 250.5,89.5C 248.787,88.3646 248.12,86.698 248.5,84.5 Z"/></g>
<g><path style="opacity:1" fill="#a4476e" d="M 165.5,250.5 C 161.893,251.652 158.227,252.652 154.5,253.5C 154.611,252.883 154.944,252.383 155.5,252C 153.744,251.798 152.078,251.298 150.5,250.5C 137.807,211.27 124.973,171.27 112,130.5C 111.578,128.574 110.411,127.574 108.5,127.5C 113.012,119.098 114.679,110.098 113.5,100.5C 113.5,99.1667 113.5,97.8333 113.5,96.5C 113.435,96.0618 113.601,95.7284 114,95.5C 114.419,96.6721 115.085,97.6721 116,98.5C 132.182,149.866 148.682,200.533 165.5,250.5 Z"/></g>
<g><path style="opacity:1" fill="#f7f9fb" d="M 123.5,87.5 C 123.5,87.1667 123.5,86.8333 123.5,86.5C 124.369,84.283 124.702,81.9496 124.5,79.5C 129.844,79.334 135.177,79.5006 140.5,80C 141.333,80.8333 142.167,81.6667 143,82.5C 145.96,92.6648 147.793,102.998 148.5,113.5C 144.833,113.5 141.167,113.5 137.5,113.5C 136.804,110.446 135.304,107.78 133,105.5C 131.931,98.4254 129.264,92.0921 125,86.5C 124.617,87.056 124.117,87.3893 123.5,87.5 Z"/></g>
<g><path style="opacity:1" fill="#ba6870" d="M 52.5,72.5 C 56.5,72.5 60.5,72.5 64.5,72.5C 68.1667,72.5 71.8333,72.5 75.5,72.5C 76.791,72.2627 77.791,72.596 78.5,73.5C 63.8333,73.5 49.1667,73.5 34.5,73.5C 34.5,74.8333 34.5,76.1667 34.5,77.5C 34.5,112.167 34.5,146.833 34.5,181.5C 34.5,181.833 34.5,182.167 34.5,182.5C 33.5016,146.337 33.1682,110.004 33.5,73.5C 39.6446,72.5098 45.9779,72.1765 52.5,72.5 Z"/></g>
<g><path style="opacity:1" fill="#d2d8db" d="M 97.5,82.5 C 93.1176,80.3176 88.4509,78.8176 83.5,78C 68.122,77.1829 52.7887,77.3495 37.5,78.5C 36.8076,79.0253 36.3076,79.6919 36,80.5C 35.577,94.5048 35.7437,108.505 36.5,122.5C 36.7589,141.742 37.4256,160.909 38.5,180C 37.5842,180.278 36.9175,180.778 36.5,181.5C 35.8333,181.5 35.1667,181.5 34.5,181.5C 34.5,146.833 34.5,112.167 34.5,77.5C 35.2891,77.2172 35.9558,76.7172 36.5,76C 51.1667,75.3333 65.8333,75.3333 80.5,76C 85.1929,76.9081 89.8596,77.9081 94.5,79C 95.7101,80.0391 96.7101,81.2058 97.5,82.5 Z"/></g>
<g><path style="opacity:1" fill="#cccacf" d="M 118.5,72.5 C 127.167,72.5 135.833,72.5 144.5,72.5C 153.608,100.597 161.941,128.93 169.5,157.5C 166.05,156.589 164.217,154.256 164,150.5C 157.479,126.627 150.812,102.96 144,79.5C 143.25,78.8742 142.416,78.3742 141.5,78C 135.509,77.5005 129.509,77.3338 123.5,77.5C 123.675,79.6208 123.341,81.6208 122.5,83.5C 120.796,80.0615 119.462,76.3948 118.5,72.5 Z"/></g>
<g><path style="opacity:1" fill="#f4f7fa" d="M 215.5,86.5 C 215.5,86.8333 215.5,87.1667 215.5,87.5C 212.935,87.155 211.101,88.4883 210,91.5C 209.667,93.5 209.333,95.5 209,97.5C 206.017,105.106 203.017,112.772 200,120.5C 199.167,121.333 198.333,122.167 197.5,123C 194.167,123.667 190.833,123.667 187.5,123C 188.297,119.255 188.797,115.421 189,111.5C 192.459,100.999 195.292,90.3324 197.5,79.5C 202.844,79.334 208.177,79.5006 213.5,80C 214.23,82.154 214.897,84.3206 215.5,86.5 Z"/></g>
<g><path style="opacity:1" fill="#ebf0f4" d="M 97.5,82.5 C 105.124,86.0517 109.624,92.0517 111,100.5C 111.333,99.5 111.667,98.5 112,97.5C 112.232,98.7375 112.732,99.7375 113.5,100.5C 114.679,110.098 113.012,119.098 108.5,127.5C 106.5,129.833 104.5,132.167 102.5,134.5C 100.611,135.604 98.9448,136.937 97.5,138.5C 94.3135,139.597 91.3135,140.93 88.5,142.5C 84.1474,143.059 79.814,143.725 75.5,144.5C 69.4018,143.883 63.7351,144.55 58.5,146.5C 57.788,145.261 56.788,144.761 55.5,145C 54.1379,147.034 53.1379,149.201 52.5,151.5C 48.5,151.5 44.5,151.5 40.5,151.5C 39.3368,140.866 38.5034,130.199 38,119.5C 37.7679,120.737 37.2679,121.737 36.5,122.5C 35.7437,108.505 35.577,94.5048 36,80.5C 36.3076,79.6919 36.8076,79.0253 37.5,78.5C 52.7887,77.3495 68.122,77.1829 83.5,78C 88.4509,78.8176 93.1176,80.3176 97.5,82.5 Z"/></g>
<g><path style="opacity:1" fill="#be7b89" d="M 73.5,91.5 C 73.5,91.8333 73.5,92.1667 73.5,92.5C 68.8333,92.5 64.1667,92.5 59.5,92.5C 59.5,103.5 59.5,114.5 59.5,125.5C 59.1667,125.5 58.8333,125.5 58.5,125.5C 58.5,116.167 58.5,106.833 58.5,97.5C 58.5,96.5 58.5,95.5 58.5,94.5C 58.5,93.5 58.5,92.5 58.5,91.5C 63.5,91.5 68.5,91.5 73.5,91.5 Z"/></g>
<g><path style="opacity:1" fill="#ad4662" d="M 73.5,92.5 C 84.7546,94.3041 89.7546,100.971 88.5,112.5C 87.4625,113.93 86.7959,115.597 86.5,117.5C 85.194,119.473 83.5273,121.139 81.5,122.5C 77.5143,113.26 74.1809,103.927 71.5,94.5C 72.2427,93.8182 72.9094,93.1515 73.5,92.5 Z"/></g>
<g><path style="opacity:1" fill="#af4158" d="M 73.5,92.5 C 72.9094,93.1515 72.2427,93.8182 71.5,94.5C 74.1809,103.927 77.5143,113.26 81.5,122.5C 79.7226,123.6 77.7226,124.434 75.5,125C 70.1771,125.499 64.8437,125.666 59.5,125.5C 59.5,114.5 59.5,103.5 59.5,92.5C 64.1667,92.5 68.8333,92.5 73.5,92.5 Z"/></g>
<g><path style="opacity:1" fill="#f9fafc" d="M 73.5,91.5 C 68.5,91.5 63.5,91.5 58.5,91.5C 58.5,92.5 58.5,93.5 58.5,94.5C 57.5,94.5 56.5,94.5 55.5,94.5C 53.7877,100.675 52.7877,107.008 52.5,113.5C 48.5,113.5 44.5,113.5 40.5,113.5C 39.5207,102.85 39.3541,92.183 40,81.5C 52.4244,80.3452 64.9244,80.1786 77.5,81C 88.1101,80.9732 96.9434,84.8065 104,92.5C 104.789,94.5802 105.956,96.4135 107.5,98C 108.425,103.116 108.758,108.283 108.5,113.5C 103.833,113.5 99.1667,113.5 94.5,113.5C 93.7132,108.304 92.2132,103.304 90,98.5C 87.0211,96.3555 84.1878,94.0222 81.5,91.5C 78.8438,90.3855 76.1771,90.3855 73.5,91.5 Z"/></g>
<g><path style="opacity:1" fill="#a74669" d="M 108.5,127.5 C 110.411,127.574 111.578,128.574 112,130.5C 124.973,171.27 137.807,211.27 150.5,250.5C 152.078,251.298 153.744,251.798 155.5,252C 154.944,252.383 154.611,252.883 154.5,253.5C 151.311,253.858 148.311,254.525 145.5,255.5C 143.167,255.5 140.833,255.5 138.5,255.5C 138.5,255.167 138.5,254.833 138.5,254.5C 140.288,254.785 141.955,254.452 143.5,253.5C 142.112,249.819 140.445,246.319 138.5,243C 139.458,241.853 139.125,240.853 137.5,240C 138.815,238.605 138.481,237.605 136.5,237C 137.022,236.439 137.355,235.772 137.5,235C 136.311,233.105 135.311,231.105 134.5,229C 134.833,228.667 135.167,228.333 135.5,228C 133.578,226.54 132.911,224.873 133.5,223C 128.637,208.603 123.304,193.603 117.5,178C 117.833,177.667 118.167,177.333 118.5,177C 114.83,166.642 111.163,156.309 107.5,146C 107.957,145.586 108.291,145.086 108.5,144.5C 106.578,141.83 105.412,138.83 105,135.5C 104.329,134.748 103.496,134.414 102.5,134.5C 104.5,132.167 106.5,129.833 108.5,127.5 Z"/></g>
<g><path style="opacity:1" fill="#d3d8dc" d="M 58.5,97.5 C 58.5,106.833 58.5,116.167 58.5,125.5C 68.3651,130.07 77.5318,128.736 86,121.5C 86.49,120.207 86.6567,118.873 86.5,117.5C 86.7959,115.597 87.4625,113.93 88.5,112.5C 88.6646,115.518 88.498,118.518 88,121.5C 80.5267,130.214 71.0267,133.38 59.5,131C 58.6667,130.167 57.8333,129.333 57,128.5C 56.8333,123.333 56.6667,118.167 56.5,113C 56.5054,107.454 57.1721,102.288 58.5,97.5 Z"/></g>
<g><path style="opacity:1" fill="#b8b6ba" d="M 86.5,117.5 C 86.6567,118.873 86.49,120.207 86,121.5C 77.5318,128.736 68.3651,130.07 58.5,125.5C 58.8333,125.5 59.1667,125.5 59.5,125.5C 64.8437,125.666 70.1771,125.499 75.5,125C 77.7226,124.434 79.7226,123.6 81.5,122.5C 83.5273,121.139 85.194,119.473 86.5,117.5 Z"/></g>
<g><path style="opacity:1" fill="#a94465" d="M 102.5,134.5 C 103.496,134.414 104.329,134.748 105,135.5C 105.412,138.83 106.578,141.83 108.5,144.5C 108.291,145.086 107.957,145.586 107.5,146C 111.163,156.309 114.83,166.642 118.5,177C 118.167,177.333 117.833,177.667 117.5,178C 123.304,193.603 128.637,208.603 133.5,223C 132.911,224.873 133.578,226.54 135.5,228C 135.167,228.333 134.833,228.667 134.5,229C 135.311,231.105 136.311,233.105 137.5,235C 137.355,235.772 137.022,236.439 136.5,237C 138.481,237.605 138.815,238.605 137.5,240C 139.125,240.853 139.458,241.853 138.5,243C 140.445,246.319 142.112,249.819 143.5,253.5C 141.955,254.452 140.288,254.785 138.5,254.5C 135.723,251.419 133.389,247.919 131.5,244C 132.022,243.439 132.355,242.772 132.5,242C 130.889,239.79 130.222,237.29 130.5,234.5C 127.001,234.741 126.668,233.908 129.5,232C 128.939,230.324 127.939,228.991 126.5,228C 126.957,227.586 127.291,227.086 127.5,226.5C 126.506,221.918 124.506,217.418 121.5,213C 121.645,212.228 121.978,211.561 122.5,211C 119.582,204.41 117.415,197.577 116,190.5C 115.5,189.333 114.667,188.5 113.5,188C 113.957,187.586 114.291,187.086 114.5,186.5C 113.198,182.732 111.531,179.232 109.5,176C 110.022,175.439 110.355,174.772 110.5,174C 108.333,166.667 105.666,159.501 102.5,152.5C 103.208,150.108 102.542,147.941 100.5,146C 101.634,144.984 101.301,144.317 99.5,144C 99.8333,143.667 100.167,143.333 100.5,143C 99.6138,141.385 98.6138,139.885 97.5,138.5C 98.9448,136.937 100.611,135.604 102.5,134.5 Z"/></g>
<g><path style="opacity:1" fill="#ac4460" d="M 97.5,138.5 C 98.6138,139.885 99.6138,141.385 100.5,143C 100.167,143.333 99.8333,143.667 99.5,144C 101.301,144.317 101.634,144.984 100.5,146C 102.542,147.941 103.208,150.108 102.5,152.5C 105.666,159.501 108.333,166.667 110.5,174C 110.355,174.772 110.022,175.439 109.5,176C 111.531,179.232 113.198,182.732 114.5,186.5C 114.291,187.086 113.957,187.586 113.5,188C 114.667,188.5 115.5,189.333 116,190.5C 117.415,197.577 119.582,204.41 122.5,211C 121.978,211.561 121.645,212.228 121.5,213C 124.506,217.418 126.506,221.918 127.5,226.5C 127.291,227.086 126.957,227.586 126.5,228C 127.939,228.991 128.939,230.324 129.5,232C 126.668,233.908 127.001,234.741 130.5,234.5C 130.222,237.29 130.889,239.79 132.5,242C 132.355,242.772 132.022,243.439 131.5,244C 133.389,247.919 135.723,251.419 138.5,254.5C 138.5,254.833 138.5,255.167 138.5,255.5C 128.833,255.5 119.167,255.5 109.5,255.5C 109.5,255.167 109.5,254.833 109.5,254.5C 111.833,254.5 114.167,254.5 116.5,254.5C 118.833,254.5 121.167,254.5 123.5,254.5C 111.411,217.314 99.7439,180.647 88.5,144.5C 90.9248,143.351 90.9248,142.684 88.5,142.5C 91.3135,140.93 94.3135,139.597 97.5,138.5 Z"/></g>
<g><path style="opacity:1" fill="#af425a" d="M 88.5,142.5 C 90.9248,142.684 90.9248,143.351 88.5,144.5C 99.7439,180.647 111.411,217.314 123.5,254.5C 121.167,254.5 118.833,254.5 116.5,254.5C 115.048,253.698 113.382,253.198 111.5,253C 103.243,229.681 95.5765,206.015 88.5,182C 84.2674,169.721 79.9341,157.554 75.5,145.5C 75.5,145.167 75.5,144.833 75.5,144.5C 79.814,143.725 84.1474,143.059 88.5,142.5 Z"/></g>
<g><path style="opacity:1" fill="#b53f4e" d="M 73.5,145.5 C 70.6417,146.166 67.6417,146.833 64.5,147.5C 75.5042,180.404 86.3375,214.07 97,248.5C 98.514,250.766 100.681,251.932 103.5,252C 101.866,252.494 100.199,252.66 98.5,252.5C 96.4855,251.076 94.1522,250.41 91.5,250.5C 90.8333,250.5 90.1667,250.5 89.5,250.5C 88.3646,248.787 86.698,248.12 84.5,248.5C 82.597,248.204 80.9303,247.537 79.5,246.5C 80.552,246.649 81.552,246.483 82.5,246C 75.4375,227.148 68.9375,207.981 63,188.5C 62.2874,186.147 61.1207,184.147 59.5,182.5C 59.5,170.167 59.5,157.833 59.5,145.5C 64.1667,145.5 68.8333,145.5 73.5,145.5 Z"/></g>
<g><path style="opacity:1" fill="#b24154" d="M 73.5,145.5 C 74.1667,145.5 74.8333,145.5 75.5,145.5C 79.9341,157.554 84.2674,169.721 88.5,182C 95.5765,206.015 103.243,229.681 111.5,253C 113.382,253.198 115.048,253.698 116.5,254.5C 114.167,254.5 111.833,254.5 109.5,254.5C 105.575,254.57 101.909,253.903 98.5,252.5C 100.199,252.66 101.866,252.494 103.5,252C 100.681,251.932 98.514,250.766 97,248.5C 86.3375,214.07 75.5042,180.404 64.5,147.5C 67.6417,146.833 70.6417,146.166 73.5,145.5 Z"/></g>
<g><path style="opacity:1" fill="#bd7984" d="M 75.5,144.5 C 75.5,144.833 75.5,145.167 75.5,145.5C 74.8333,145.5 74.1667,145.5 73.5,145.5C 68.8333,145.5 64.1667,145.5 59.5,145.5C 59.5,157.833 59.5,170.167 59.5,182.5C 51.1667,182.5 42.8333,182.5 34.5,182.5C 34.5,182.167 34.5,181.833 34.5,181.5C 35.1667,181.5 35.8333,181.5 36.5,181.5C 43.8333,181.5 51.1667,181.5 58.5,181.5C 58.5,169.833 58.5,158.167 58.5,146.5C 63.7351,144.55 69.4018,143.883 75.5,144.5 Z"/></g>
<g><path style="opacity:1" fill="#e6ecf2" d="M 169.5,157.5 C 169.5,158.167 169.5,158.833 169.5,159.5C 169.56,160.043 169.893,160.376 170.5,160.5C 173.189,157.707 175.023,154.374 176,150.5C 180.012,134.454 184.346,118.454 189,102.5C 189.465,98.1523 189.965,93.819 190.5,89.5C 192.132,89.1753 193.132,88.1753 193.5,86.5C 193.306,81.9838 195.306,79.1505 199.5,78C 205.196,77.1701 210.863,77.3368 216.5,78.5C 216.863,79.1835 217.196,79.8501 217.5,80.5C 217.405,82.7857 216.738,84.7857 215.5,86.5C 214.897,84.3206 214.23,82.154 213.5,80C 208.177,79.5006 202.844,79.334 197.5,79.5C 195.292,90.3324 192.459,100.999 189,111.5C 188.797,115.421 188.297,119.255 187.5,123C 190.833,123.667 194.167,123.667 197.5,123C 198.333,122.167 199.167,121.333 200,120.5C 203.017,112.772 206.017,105.106 209,97.5C 209.333,95.5 209.667,93.5 210,91.5C 211.101,88.4883 212.935,87.155 215.5,87.5C 210.167,103.167 204.833,118.833 199.5,134.5C 197.699,135.758 196.199,137.424 195,139.5C 192.957,150.335 188.624,160.002 182,168.5C 181.333,170.5 180.667,172.5 180,174.5C 172.921,175.48 165.755,175.813 158.5,175.5C 157.981,169.768 155.648,164.935 151.5,161C 147.257,151.816 143.757,142.316 141,132.5C 140.329,131.748 139.496,131.414 138.5,131.5C 133.502,116.838 128.502,102.172 123.5,87.5C 124.117,87.3893 124.617,87.056 125,86.5C 129.264,92.0921 131.931,98.4254 133,105.5C 135.304,107.78 136.804,110.446 137.5,113.5C 141.167,113.5 144.833,113.5 148.5,113.5C 147.793,102.998 145.96,92.6648 143,82.5C 142.167,81.6667 141.333,80.8333 140.5,80C 135.177,79.5006 129.844,79.334 124.5,79.5C 124.702,81.9496 124.369,84.283 123.5,86.5C 122.596,85.791 122.263,84.791 122.5,83.5C 123.341,81.6208 123.675,79.6208 123.5,77.5C 129.509,77.3338 135.509,77.5005 141.5,78C 142.416,78.3742 143.25,78.8742 144,79.5C 150.812,102.96 157.479,126.627 164,150.5C 164.217,154.256 166.05,156.589 169.5,157.5 Z"/></g>
<g><path style="opacity:1" fill="#cbcdd3" d="M 190.5,89.5 C 189.965,93.819 189.465,98.1523 189,102.5C 184.346,118.454 180.012,134.454 176,150.5C 175.023,154.374 173.189,157.707 170.5,160.5C 169.893,160.376 169.56,160.043 169.5,159.5C 170.834,153.507 172.501,147.507 174.5,141.5C 175.833,136.833 177.167,132.167 178.5,127.5C 180.567,121.63 182.233,115.63 183.5,109.5C 185.828,102.849 188.162,96.1825 190.5,89.5 Z"/></g>
<g><path style="opacity:1" fill="#e0e9f1" d="M 58.5,146.5 C 58.5,158.167 58.5,169.833 58.5,181.5C 51.1667,181.5 43.8333,181.5 36.5,181.5C 36.9175,180.778 37.5842,180.278 38.5,180C 37.4256,160.909 36.7589,141.742 36.5,122.5C 37.2679,121.737 37.7679,120.737 38,119.5C 38.5034,130.199 39.3368,140.866 40.5,151.5C 44.5,151.5 48.5,151.5 52.5,151.5C 53.1379,149.201 54.1379,147.034 55.5,145C 56.788,144.761 57.788,145.261 58.5,146.5 Z"/></g>
<g><path style="opacity:1" fill="#964b87" d="M 193.5,153.5 C 193.883,155.408 194.883,156.908 196.5,158C 196.167,158.333 195.833,158.667 195.5,159C 201.464,174.566 206.464,190.566 210.5,207C 211.775,209.494 213.108,211.994 214.5,214.5C 213.899,217.243 215.233,218.576 218.5,218.5C 214.153,222.845 209.486,226.845 204.5,230.5C 202.71,228.208 201.21,225.541 200,222.5C 195.224,207.089 190.391,191.756 185.5,176.5C 187.398,168.47 190.064,160.803 193.5,153.5 Z"/></g>
<g><path style="opacity:1" fill="#d8dee8" d="M 138.5,131.5 C 139.496,131.414 140.329,131.748 141,132.5C 143.757,142.316 147.257,151.816 151.5,161C 155.648,164.935 157.981,169.768 158.5,175.5C 165.755,175.813 172.921,175.48 180,174.5C 180.667,172.5 181.333,170.5 182,168.5C 188.624,160.002 192.957,150.335 195,139.5C 196.199,137.424 197.699,135.758 199.5,134.5C 197.102,140.696 195.102,147.029 193.5,153.5C 190.064,160.803 187.398,168.47 185.5,176.5C 184.262,178.214 183.595,180.214 183.5,182.5C 179.833,182.5 176.167,182.5 172.5,182.5C 166.833,182.5 161.167,182.5 155.5,182.5C 150.031,165.426 144.364,148.426 138.5,131.5 Z"/></g>
<g><path style="opacity:1" fill="#9a4980" d="M 185.5,176.5 C 190.391,191.756 195.224,207.089 200,222.5C 201.21,225.541 202.71,228.208 204.5,230.5C 200.881,233.65 196.881,236.316 192.5,238.5C 191.022,238.762 189.689,238.429 188.5,237.5C 183.061,220.58 177.394,203.08 171.5,185C 171.743,184.098 172.077,183.265 172.5,182.5C 176.167,182.5 179.833,182.5 183.5,182.5C 183.595,180.214 184.262,178.214 185.5,176.5 Z"/></g>
<g><path style="opacity:1" fill="#9e497a" d="M 155.5,182.5 C 161.167,182.5 166.833,182.5 172.5,182.5C 172.077,183.265 171.743,184.098 171.5,185C 177.394,203.08 183.061,220.58 188.5,237.5C 189.689,238.429 191.022,238.762 192.5,238.5C 188.151,241.341 183.484,243.674 178.5,245.5C 177.542,245.047 176.708,244.381 176,243.5C 171.947,230.168 167.781,217.002 163.5,204C 161.964,196.697 159.297,189.53 155.5,182.5 Z"/></g>
<g><path style="opacity:0.847" fill="#ce9498" d="M 84.5,248.5 C 86.698,248.12 88.3646,248.787 89.5,250.5C 87.597,250.204 85.9303,249.537 84.5,248.5 Z"/></g>
<g><path style="opacity:0.702" fill="#c4838a" d="M 91.5,250.5 C 94.1522,250.41 96.4855,251.076 98.5,252.5C 95.8478,252.59 93.5145,251.924 91.5,250.5 Z"/></g>
</svg>
