<?xml version="1.0" standalone="no"?>
<!DOCTYPE svg PUBLIC "-//W3C//DTD SVG 20010904//EN"
 "http://www.w3.org/TR/2001/REC-SVG-20010904/DTD/svg10.dtd">
<svg version="1.0" xmlns="http://www.w3.org/2000/svg"
 width="256.000000pt" height="256.000000pt" viewBox="0 0 256.000000 256.000000"
 preserveAspectRatio="xMidYMid meet">

<g transform="translate(0.000000,256.000000) scale(0.100000,-0.100000)"
fill="#000000" stroke="none">
<path d="M1110 2544 c-339 -49 -645 -227 -846 -493 -78 -103 -174 -293 -208
-413 -37 -127 -59 -306 -52 -408 22 -324 137 -600 341 -818 426 -458 1108
-541 1636 -201 125 81 287 243 368 368 339 526 257 1206 -197 1633 -189 178
-439 294 -712 333 -131 18 -201 18 -330 -1z m-202 -737 c109 -32 169 -83 213
-183 18 -38 22 -68 23 -139 0 -112 -26 -184 -88 -248 -89 -92 -187 -127 -353
-127 l-103 0 -1 -175 c-1 -96 -2 -181 -3 -187 -1 -10 -35 -14 -123 -16 l-123
-3 0 552 0 551 253 -5 c184 -3 266 -9 305 -20z m660 -357 c62 -206 119 -400
126 -430 9 -34 15 -46 16 -30 1 14 56 207 123 430 l122 405 128 3 c79 2 127
-1 127 -7 0 -6 -72 -221 -161 -478 -89 -257 -172 -501 -186 -541 l-25 -73
-141 3 -140 3 -183 535 c-101 294 -183 541 -183 548 -1 10 29 12 131 10 l132
-3 114 -375z"/>
<path d="M600 1465 l0 -165 78 0 c93 0 152 23 182 72 17 27 20 46 18 105 -3
60 -7 76 -28 99 -38 40 -80 54 -170 54 l-80 0 0 -165z"/>
</g>
</svg>
